<?xml version="1.0" encoding="utf-8"?>
<!-- Generator: Adobe Illustrator 24.2.1, SVG Export Plug-In . SVG Version: 6.00 Build 0)  -->
<svg version="1.1" id="Camada_1" xmlns="http://www.w3.org/2000/svg" xmlns:xlink="http://www.w3.org/1999/xlink" x="0px" y="0px"
	 viewBox="0 0 750 265" style="enable-background:new 0 0 750 265;" xml:space="preserve">
<style type="text/css">
	.st0{clip-path:url(#SVGID_2_);fill:#93D500;}
	.st1{clip-path:url(#SVGID_2_);fill:#3DAE2B;}
</style>
<g>
	<defs>
		<rect id="SVGID_1_" width="750" height="265"/>
	</defs>
	<clipPath id="SVGID_2_">
		<use xlink:href="#SVGID_1_"  style="overflow:visible;"/>
	</clipPath>
	<path class="st0" d="M234.6,190.1v13.6c0,0.8-0.4,1.2-1.1,1.2c-0.7,0-1.2-0.5-1.2-1.2v-11h0l-5.3,8.4c-0.3,0.5-0.7,0.7-1.1,0.7
		c-0.5,0-0.8-0.2-1.1-0.6l-5.3-8.5h0v11.1c0,0.7-0.4,1.2-1.1,1.2c-0.7,0-1.1-0.5-1.1-1.2v-13.6c0-0.9,0.5-1.6,1.5-1.6
		c0.6,0,1.1,0.3,1.5,0.9l5.8,9.3l5.8-9.3c0.4-0.6,0.9-0.9,1.5-0.9C234.1,188.6,234.6,189.3,234.6,190.1"/>
	<path class="st0" d="M247,188.5c4.9,0,8.3,3.4,8.3,8.3c0,4.9-3.4,8.3-8.3,8.3c-4.9,0-8.3-3.4-8.3-8.3
		C238.7,191.9,242.1,188.5,247,188.5 M247,203c3.5,0,6-2.5,6-6.2c0-3.7-2.4-6.2-6-6.2c-3.6,0-6,2.5-6,6.2
		C241,200.5,243.4,203,247,203"/>
	<path class="st0" d="M272.8,203c0.2,0.3,0.3,0.6,0.3,0.9c0,0.7-0.5,1.1-1.1,1.1c-0.5,0-0.7-0.2-1-0.6l-4.5-5.8h-4.8v5.1
		c0,0.8-0.4,1.2-1.1,1.2c-0.7,0-1.2-0.5-1.2-1.2V190c0-0.8,0.5-1.2,1.2-1.2h7.1c3.5,0,5.3,1.7,5.3,4.8c0,2.7-1.3,4.4-3.9,4.8v0
		L272.8,203z M267.5,196.6c2.1,0,3.2-1,3.2-2.9c0-1.9-1.1-2.9-3.2-2.9h-5.8v5.7H267.5z"/>
	<path class="st0" d="M289.3,202.8c0.7,0,1.1,0.4,1.1,1.1c0,0.6-0.4,1-1.1,1h-11c-0.8,0-1.2-0.5-1.2-1.2V190c0-0.8,0.5-1.2,1.2-1.2
		h11c0.7,0,1.1,0.4,1.1,1c0,0.6-0.4,1.1-1.1,1.1h-10v4.8h8.2c0.7,0,1.2,0.4,1.2,1c0,0.7-0.4,1.1-1.2,1.1h-8.2v5H289.3z"/>
	<path class="st0" d="M313.9,188.8c0.7,0,1.1,0.4,1.1,1c0,0.6-0.4,1.1-1.1,1.1h-5.3v12.9c0,0.8-0.4,1.2-1.1,1.2
		c-0.7,0-1.2-0.5-1.2-1.2v-12.9H301c-0.7,0-1.1-0.4-1.1-1.1c0-0.6,0.4-1,1.1-1H313.9z"/>
	<path class="st0" d="M332.7,189.9v13.9c0,0.8-0.4,1.2-1.1,1.2c-0.7,0-1.2-0.5-1.2-1.2v-6h-10v6c0,0.8-0.4,1.2-1.1,1.2
		c-0.7,0-1.2-0.5-1.2-1.2v-13.9c0-0.8,0.4-1.2,1.2-1.2c0.7,0,1.1,0.5,1.1,1.2v5.8h10v-5.8c0-0.8,0.4-1.2,1.2-1.2
		C332.3,188.6,332.7,189.1,332.7,189.9"/>
	<path class="st0" d="M351.7,196v7.7c0,0.8-0.4,1.2-1.1,1.2c-0.7,0-1.1-0.5-1.1-1.2V200h-10.1v3.8c0,0.7-0.4,1.2-1.1,1.2
		c-0.7,0-1.1-0.5-1.1-1.2V196c0-4.9,2.6-7.6,7.3-7.6C349.1,188.5,351.7,191.2,351.7,196 M349.4,195.9c0-3.5-1.8-5.4-5-5.4
		c-3.3,0-5,1.8-5,5.4v1.9h10.1V195.9z"/>
	<path class="st0" d="M370.5,189.8v13.8c0,0.8-0.5,1.4-1.2,1.4c-0.5,0-0.9-0.1-1.3-0.6l-9.6-12h0v11.4c0,0.7-0.4,1.2-1.1,1.2
		c-0.7,0-1.1-0.5-1.1-1.2V190c0-0.9,0.6-1.4,1.3-1.4c0.5,0,1,0.1,1.3,0.6l9.5,12h0v-11.4c0-0.7,0.4-1.2,1.1-1.2
		C370,188.6,370.5,189.1,370.5,189.8"/>
	<path class="st0" d="M396.6,189.8v13.8c0,0.8-0.5,1.4-1.2,1.4c-0.5,0-0.9-0.1-1.3-0.6l-9.6-12h0v11.4c0,0.7-0.4,1.2-1.1,1.2
		c-0.7,0-1.1-0.5-1.1-1.2V190c0-0.9,0.6-1.4,1.3-1.4c0.5,0,1,0.1,1.3,0.6l9.5,12h0v-11.4c0-0.7,0.4-1.2,1.1-1.2
		C396.2,188.6,396.6,189.1,396.6,189.8"/>
	<path class="st0" d="M415.6,196v7.7c0,0.8-0.4,1.2-1.1,1.2c-0.7,0-1.1-0.5-1.1-1.2V200h-10.1v3.8c0,0.7-0.4,1.2-1.1,1.2
		c-0.7,0-1.1-0.5-1.1-1.2V196c0-4.9,2.6-7.6,7.3-7.6C413,188.5,415.6,191.2,415.6,196 M413.3,195.9c0-3.5-1.8-5.4-5-5.4
		c-3.3,0-5,1.8-5,5.4v1.9h10.1V195.9z"/>
	<path class="st0" d="M431.9,188.8c0.7,0,1.1,0.4,1.1,1c0,0.6-0.4,1.1-1.1,1.1h-5.3v12.9c0,0.8-0.4,1.2-1.1,1.2
		c-0.7,0-1.2-0.5-1.2-1.2v-12.9H419c-0.7,0-1.1-0.4-1.1-1.1c0-0.6,0.4-1,1.1-1H431.9z"/>
	<path class="st0" d="M449.8,189.8v8.1c0,4.7-2.4,7.2-6.9,7.2c-4.5,0-7-2.5-7-7.2v-8.1c0-0.8,0.4-1.2,1.1-1.2c0.7,0,1.2,0.5,1.2,1.2
		v8c0,3.4,1.6,5.2,4.7,5.2c3,0,4.6-1.8,4.6-5.2v-8.1c0-0.7,0.4-1.2,1.1-1.2C449.3,188.6,449.8,189.1,449.8,189.8"/>
	<path class="st0" d="M467.6,203c0.2,0.3,0.3,0.6,0.3,0.9c0,0.7-0.5,1.1-1.1,1.1c-0.5,0-0.7-0.2-1-0.6l-4.5-5.8h-4.8v5.1
		c0,0.8-0.4,1.2-1.1,1.2c-0.7,0-1.2-0.5-1.2-1.2V190c0-0.8,0.5-1.2,1.2-1.2h7.1c3.5,0,5.3,1.7,5.3,4.8c0,2.7-1.3,4.4-3.9,4.8v0
		L467.6,203z M462.3,196.6c2.1,0,3.2-1,3.2-2.9c0-1.9-1.1-2.9-3.2-2.9h-5.8v5.7H462.3z"/>
	<path class="st0" d="M486.2,196v7.7c0,0.8-0.4,1.2-1.1,1.2c-0.7,0-1.1-0.5-1.1-1.2V200h-10.1v3.8c0,0.7-0.4,1.2-1.1,1.2
		c-0.7,0-1.1-0.5-1.1-1.2V196c0-4.9,2.6-7.6,7.3-7.6C483.6,188.5,486.2,191.2,486.2,196 M483.9,195.9c0-3.5-1.8-5.4-5-5.4
		c-3.3,0-5,1.8-5,5.4v1.9h10.1V195.9z"/>
	<path class="st0" d="M502.5,202.8c0.7,0,1.1,0.4,1.1,1.1c0,0.6-0.4,1-1.1,1h-10.6c-0.8,0-1.2-0.5-1.2-1.2v-13.8
		c0-0.8,0.4-1.2,1.1-1.2c0.7,0,1.1,0.5,1.1,1.2v12.9H502.5z"/>
	<path class="st0" d="M506.8,207.8c-0.2,0.4-0.4,0.6-0.8,0.6c-0.5,0-0.8-0.4-0.8-0.8c0-0.2,0-0.4,0.1-0.6l1.7-3.9
		c0.2-0.5,0.5-0.7,1-0.7c0.6,0,1.1,0.4,1.1,1.1c0,0.2,0,0.4-0.2,0.7L506.8,207.8z"/>
	<path class="st0" d="M527.6,195.6c5.1,0,6.9,1.4,6.9,4.5c0,3.2-2.6,5.1-6.9,5.1c-3.2,0-5.6-0.9-6.9-2.5c-0.1-0.2-0.3-0.5-0.3-0.8
		c0-0.6,0.4-1.1,1.1-1.1c0.4,0,0.6,0.2,0.8,0.4c1.2,1.3,3,2,5.4,2c2.8,0,4.5-1.1,4.5-2.9c0-1.5-1.1-2.3-4.8-2.3
		c-5-0.1-6.7-1.3-6.7-4.3c0-3.1,2.7-5.1,6.8-5.1c2.6,0,4.7,0.7,6,2.1c0.2,0.2,0.3,0.5,0.3,0.8c0,0.6-0.5,1.1-1.1,1.1
		c-0.4,0-0.7-0.2-0.9-0.4c-1.1-1.1-2.6-1.6-4.5-1.6c-2.6,0-4.4,1.1-4.4,2.9C523,194.9,524.1,195.5,527.6,195.6"/>
	<path class="st0" d="M552,189.8v8.1c0,4.7-2.4,7.2-6.9,7.2c-4.5,0-7-2.5-7-7.2v-8.1c0-0.8,0.4-1.2,1.1-1.2c0.7,0,1.2,0.5,1.2,1.2v8
		c0,3.4,1.6,5.2,4.7,5.2c3,0,4.6-1.8,4.6-5.2v-8.1c0-0.7,0.4-1.2,1.1-1.2C551.6,188.6,552,189.1,552,189.8"/>
	<path class="st0" d="M562.8,195.6c5.1,0,6.9,1.4,6.9,4.5c0,3.2-2.6,5.1-6.9,5.1c-3.2,0-5.6-0.9-6.9-2.5c-0.1-0.2-0.3-0.5-0.3-0.8
		c0-0.6,0.4-1.1,1.1-1.1c0.4,0,0.6,0.2,0.8,0.4c1.2,1.3,3,2,5.4,2c2.8,0,4.5-1.1,4.5-2.9c0-1.5-1.1-2.3-4.8-2.3
		c-5-0.1-6.7-1.3-6.7-4.3c0-3.1,2.7-5.1,6.8-5.1c2.6,0,4.7,0.7,6,2.1c0.2,0.2,0.3,0.5,0.3,0.8c0,0.6-0.5,1.1-1.1,1.1
		c-0.4,0-0.7-0.2-0.9-0.4c-1.1-1.1-2.6-1.6-4.5-1.6c-2.6,0-4.4,1.1-4.4,2.9C558.2,194.9,559.3,195.5,562.8,195.6"/>
	<path class="st0" d="M585.5,188.8c0.7,0,1.1,0.4,1.1,1c0,0.6-0.4,1.1-1.1,1.1h-5.3v12.9c0,0.8-0.4,1.2-1.1,1.2
		c-0.7,0-1.2-0.5-1.2-1.2v-12.9h-5.3c-0.7,0-1.1-0.4-1.1-1.1c0-0.6,0.4-1,1.1-1H585.5z"/>
	<path class="st0" d="M603.6,196v7.7c0,0.8-0.4,1.2-1.1,1.2c-0.7,0-1.1-0.5-1.1-1.2V200h-10.1v3.8c0,0.7-0.4,1.2-1.1,1.2
		c-0.7,0-1.1-0.5-1.1-1.2V196c0-4.9,2.6-7.6,7.3-7.6C600.9,188.5,603.6,191.2,603.6,196 M601.3,195.9c0-3.5-1.8-5.4-5-5.4
		c-3.3,0-5,1.8-5,5.4v1.9h10.1V195.9z"/>
	<path class="st0" d="M610.2,189.9v13.9c0,0.8-0.4,1.2-1.1,1.2c-0.7,0-1.2-0.5-1.2-1.2v-13.9c0-0.8,0.4-1.2,1.2-1.2
		C609.8,188.6,610.2,189.1,610.2,189.9"/>
	<path class="st0" d="M629.2,189.8v13.8c0,0.8-0.5,1.4-1.2,1.4c-0.5,0-0.9-0.1-1.3-0.6l-9.6-12h0v11.4c0,0.7-0.4,1.2-1.1,1.2
		c-0.7,0-1.1-0.5-1.1-1.2V190c0-0.9,0.5-1.4,1.3-1.4c0.5,0,1,0.1,1.3,0.6l9.5,12h0v-11.4c0-0.7,0.4-1.2,1.1-1.2
		C628.8,188.6,629.2,189.1,629.2,189.8"/>
	<path class="st0" d="M648.2,196v7.7c0,0.8-0.4,1.2-1.1,1.2c-0.7,0-1.2-0.5-1.2-1.2V200h-10.1v3.8c0,0.7-0.4,1.2-1.1,1.2
		c-0.7,0-1.1-0.5-1.1-1.2V196c0-4.9,2.6-7.6,7.3-7.6C645.6,188.5,648.2,191.2,648.2,196 M645.9,195.9c0-3.5-1.8-5.4-5-5.4
		c-3.3,0-5,1.8-5,5.4v1.9h10.1V195.9z"/>
	<path class="st0" d="M664,196.7c1.7,0.6,2.7,1.8,2.7,3.7c0,3-1.7,4.4-5.2,4.4h-7.6c-0.8,0-1.2-0.5-1.2-1.2V190
		c0-0.8,0.5-1.2,1.2-1.2h7.2c3.5,0,5.2,1.4,5.2,4.3C666.2,194.8,665.5,196,664,196.7L664,196.7z M660.9,195.7c2,0,3-0.8,3-2.4
		c0-1.7-1-2.4-3-2.4h-6.1v4.8H660.9z M661.4,202.8c2,0,3-0.8,3-2.5c0-1.7-1-2.5-3-2.5h-6.5v5H661.4z"/>
	<path class="st0" d="M682.4,202.8c0.7,0,1.1,0.4,1.1,1.1c0,0.6-0.4,1-1.1,1h-10.6c-0.8,0-1.2-0.5-1.2-1.2v-13.8
		c0-0.8,0.4-1.2,1.1-1.2c0.7,0,1.1,0.5,1.1,1.2v12.9H682.4z"/>
	<path class="st0" d="M698.9,202.8c0.7,0,1.1,0.4,1.1,1.1c0,0.6-0.4,1-1.1,1h-11c-0.8,0-1.2-0.5-1.2-1.2V190c0-0.8,0.5-1.2,1.2-1.2
		h11c0.7,0,1.1,0.4,1.1,1c0,0.6-0.4,1.1-1.1,1.1h-10v4.8h8.2c0.7,0,1.2,0.4,1.2,1c0,0.7-0.4,1.1-1.2,1.1h-8.2v5H698.9z"/>
	<path class="st1" d="M414.7,94.9c23.8,0,40.1,16.3,40.1,40.1c0,23.8-16.3,40.1-40.1,40.1c-23.8,0-40.3-16.3-40.3-40.1
		C374.5,111.2,390.9,94.9,414.7,94.9 M414.7,165.1c17.1,0,28.9-12.3,28.9-30.1c0-17.8-11.8-30.1-28.9-30.1c-17.2,0-29,12.3-29,30.1
		C385.7,152.8,397.5,165.1,414.7,165.1"/>
	<path class="st1" d="M526.1,163.7c3.4,0,5.4,2,5.4,5.1c0,3.1-2.1,5-5.4,5H473c-3.7,0-6-2.2-6-5.9v-65.7c0-3.7,2.3-5.9,6-5.9h53.1
		c3.4,0,5.4,1.9,5.4,5c0,3.1-2.1,5.1-5.4,5.1H478v23.4h39.4c3.5,0,5.6,1.9,5.6,5c0,3.2-2.1,5.1-5.6,5.1H478v23.9H526.1z"/>
	<path class="st1" d="M612,101.3v66.5c0,4-2.3,6.6-6,6.6c-2.2,0-4.5-0.7-6.2-2.9l-46.2-58h-0.2v55.1c0,3.6-2,5.8-5.3,5.8
		c-3.4,0-5.4-2.2-5.4-5.8v-66.4c0-4.2,2.7-6.7,6.1-6.7c2.5,0,4.6,0.7,6.4,2.9l45.9,57.8h0.2v-55c0-3.6,2-5.8,5.3-5.8
		C609.9,95.5,612,97.7,612,101.3"/>
	<path class="st1" d="M252.1,94.9c-22.4,0-35.2,12.8-35.2,36.4v37.4c0,3.6,2,5.8,5.3,5.8c3.5,0,5.4-2.2,5.4-5.8v-18.5h0.2v-10.1
		h-0.2v-9.3c0-17.1,8.6-25.9,24.3-25.9c15.7,0,24.3,8.8,24.3,25.9v9.3h-42.7v10.1h42.7v18.4c0,3.7,2,5.9,5.6,5.9
		c3.5,0,5.4-2.2,5.4-5.9v-37.3C287.2,107.7,274.6,94.9,252.1,94.9"/>
	<path class="st1" d="M661,94.9c-22.4,0-35.2,12.8-35.2,36.4v37.4c0,3.6,2,5.8,5.3,5.8c3.5,0,5.4-2.2,5.4-5.8v-18.5h40.5v-10.1
		h-40.5v-9.3c0-17.1,8.6-25.9,24.3-25.9c15.7,0,24.3,8.8,24.3,25.9v9.3h-0.1v10.1h0.1v18.4c0,3.7,2,5.9,5.6,5.9
		c3.5,0,5.4-2.2,5.4-5.9v-37.3C696.2,107.7,683.6,94.9,661,94.9"/>
	<path class="st1" d="M341.7,96.2h-34.6c-3.7,0-6,2.2-6,5.9v4.4h11v-0.2h28.6c10.1,0,15.5,4.9,15.5,14.1c0,9.3-5.4,14.1-15.5,14.1
		h-28.6v-0.2h-11v34.2c0,3.7,2.1,5.9,5.6,5.9c3.5,0,5.4-2.2,5.4-5.9v-23.9h29.6c16.7,0,25.7-8.4,25.7-24.2
		C367.4,104.7,358.4,96.2,341.7,96.2"/>
	<path class="st0" d="M185.2,56.7c13.1,0,23.8,10.6,23.8,23.8c0,13.1-10.6,23.8-23.8,23.8c-13.1,0-23.8-10.6-23.8-23.8
		C161.4,67.3,172,56.7,185.2,56.7"/>
	<path class="st1" d="M175.7,118.5L175.7,118.5c-0.2-0.3-0.3-0.5-0.5-0.7c-0.6-0.6-1.5-0.8-2.3-0.6l-0.1,0c-3.1,0.6-6.4,0.7-9.9,0
		c-9.7-2-17.4-9.9-19.1-19.6c-0.9-4.9-0.2-9.5,1.5-13.6c0,0,0,0,0,0c0.1-0.3,0.2-0.6,0.2-1c0-0.9-0.5-1.7-1.3-2.2l0,0
		c-0.1,0-0.1-0.1-0.2-0.1c0,0-0.1,0-0.1-0.1c-11.4-5.9-24.8-8.6-39-6.6C79,77.6,53.9,103.1,50.5,129c-5.3,41.4,28.8,76.4,70,72.5
		c28-2.6,51.3-23.9,56.9-51.5C179.6,138.9,178.7,128.2,175.7,118.5"/>
</g>
</svg>
